<?xml version="1.0" encoding="UTF-8" standalone="no"?>
<!-- Created with Inkscape (http://www.inkscape.org/) -->

<svg
   xmlns:dc="http://purl.org/dc/elements/1.1/"
   xmlns:cc="http://creativecommons.org/ns#"
   xmlns:rdf="http://www.w3.org/1999/02/22-rdf-syntax-ns#"
   xmlns:svg="http://www.w3.org/2000/svg"
   xmlns="http://www.w3.org/2000/svg"
   xmlns:sodipodi="http://sodipodi.sourceforge.net/DTD/sodipodi-0.dtd"
   xmlns:inkscape="http://www.inkscape.org/namespaces/inkscape"
   width="180"
   height="256"
   id="svg2"
   version="1.1"
   inkscape:version="0.48.4 r9939"
   sodipodi:docname="harold-reference.svg">
  <defs
     id="defs4" />
  <sodipodi:namedview
     id="base"
     pagecolor="#ffffff"
     bordercolor="#666666"
     borderopacity="1.0"
     inkscape:pageopacity="0.0"
     inkscape:pageshadow="2"
     inkscape:zoom="15.839192"
     inkscape:cx="100.98015"
     inkscape:cy="186.68395"
     inkscape:document-units="px"
     inkscape:current-layer="layer1"
     showgrid="true"
     inkscape:window-width="683"
     inkscape:window-height="713"
     inkscape:window-x="0"
     inkscape:window-y="27"
     inkscape:window-maximized="0">
    <inkscape:grid
       type="xygrid"
       id="grid2985"
       empspacing="4"
       visible="true"
       enabled="true"
       snapvisiblegridlinesonly="true" />
  </sodipodi:namedview>
  <metadata
     id="metadata7">
    <rdf:RDF>
      <cc:Work
         rdf:about="">
        <dc:format>image/svg+xml</dc:format>
        <dc:type
           rdf:resource="http://purl.org/dc/dcmitype/StillImage" />
        <dc:title />
      </cc:Work>
    </rdf:RDF>
  </metadata>
  <g
     inkscape:label="Layer 1"
     inkscape:groupmode="layer"
     id="layer1"
     transform="translate(0,-796.36218)">
    <path
       style="fill:#f8f7ba;fill-opacity:1;stroke:#000000;stroke-width:3;stroke-linecap:round;stroke-linejoin:miter;stroke-miterlimit:4;stroke-opacity:1;stroke-dasharray:none"
       d="m 68.5,859.43361 c -28,12 -20,48 0,52 7.844645,1.56893 0,20 0,20 l 32,8 c 0,0 -2.385139,-7.22972 0,-12 4,-8 60.08904,16.37426 71.5,-43.07143 7.5,-39.07143 -47.18911,-61.27869 -68.5,-47.07143 -24,16 -19,18.14286 -31,6.14286 -4,8 -4,16 -4,16 z"
       id="path3035"
       inkscape:connector-curvature="0"
       sodipodi:nodetypes="csccssscc" />
    <path
       style="fill:#5790ee;fill-opacity:1;fill-rule:nonzero;stroke:#000000;stroke-width:3;stroke-linecap:butt;stroke-linejoin:round;stroke-miterlimit:4;stroke-opacity:1;stroke-dasharray:none"
       d="M 72,916.36218 16.785714,908.14789 C 8,912.36218 8,920.36218 8,928.36218 l 52,20 c -8.785714,8.21429 -4,32 -4,32 -12,16 -12,36.00002 -12,36.00002 0,0 -16,0 -24,8 4,4 26.928194,3.9643 32,4 6.666501,0.047 12,-4 20,0 0,0 4,-12 12,-20 0,0 8,16 24,16 0,0 -16,4 -15.214286,11.7857 11.214286,0.2143 47.999996,0 47.999996,0 l 12,-16 c 0,0 -12.45614,-9.3332 -16.78571,-19.7857 -1.53073,-3.69554 -8.78571,-3.78573 -8,-16.00002 0.75358,-11.71487 -13.46399,-11.2574 -12,-20 l 28.78571,7.78571 8,-12 c 0,0 -12.78571,-19.78571 -48.78571,-31.78571 -8,0 -32,0 -32,-12 z"
       id="path3805"
       inkscape:connector-curvature="0"
       sodipodi:nodetypes="cccccccsccccccssccccc" />
    <path
       sodipodi:nodetypes="csc"
       inkscape:connector-curvature="0"
       id="path3807"
       d="m 68,940.36218 c -4.392857,4.10715 -3.068707,3.06871 -8,8 -8,8 -4,32 -4,32"
       style="fill:none;fill-opacity:1;fill-rule:nonzero;stroke:#000000;stroke-width:3;stroke-linecap:round;stroke-linejoin:round;stroke-miterlimit:4;stroke-opacity:1;stroke-dasharray:none" />
    <path
       style="fill:none;fill-opacity:1;fill-rule:nonzero;stroke:#000000;stroke-width:3;stroke-linecap:round;stroke-linejoin:round;stroke-miterlimit:4;stroke-opacity:1;stroke-dasharray:none"
       d="m 80,1000.3622 c 0,0 1.40996,1.5249 4,8 8,20 24,16 24,16"
       id="path3809"
       inkscape:connector-curvature="0"
       sodipodi:nodetypes="csc" />
    <path
       style="fill:none;stroke:#000000;stroke-width:3;stroke-linecap:round;stroke-linejoin:round;stroke-miterlimit:4;stroke-opacity:1;stroke-dasharray:none"
       d="m 52,884.36218 c 8,4 20,0 20,0"
       id="path3811"
       inkscape:connector-curvature="0"
       sodipodi:nodetypes="cc" />
    <path
       sodipodi:nodetypes="cc"
       inkscape:connector-curvature="0"
       id="path3813"
       d="m 100,868.36218 c 28,-16 20,-32 0,-12"
       style="fill:#ffffff;stroke:#000000;stroke-width:3;stroke-linecap:round;stroke-linejoin:round;stroke-miterlimit:4;stroke-opacity:1;stroke-dasharray:none;fill-opacity:1" />
    <path
       style="fill:none;stroke:#000000;stroke-width:3;stroke-linecap:round;stroke-linejoin:round;stroke-miterlimit:4;stroke-opacity:1;stroke-dasharray:none"
       d="m 131.57143,865.86218 c 4,-8 8,-20 4,-24"
       id="path3815"
       inkscape:connector-curvature="0"
       sodipodi:nodetypes="cc" />
    <path
       sodipodi:nodetypes="cc"
       inkscape:connector-curvature="0"
       id="path3817"
       d="m 156,880.36218 c 0,-12 0,-24 -4,-28"
       style="fill:none;stroke:#000000;stroke-width:3;stroke-linecap:round;stroke-linejoin:round;stroke-miterlimit:4;stroke-opacity:1;stroke-dasharray:none" />
    <path
       style="fill:#ffffff;fill-opacity:1;stroke:#000000;stroke-width:3;stroke-linecap:round;stroke-linejoin:round;stroke-miterlimit:4;stroke-opacity:1;stroke-dasharray:none"
       d="m 90,869.36218 c 3,-2 6,-10 6,-10"
       id="path3821"
       inkscape:connector-curvature="0"
       sodipodi:nodetypes="cc" />
  </g>
</svg>
